<svg width="144" height="40" viewBox="0 0 144 40" fill="none" xmlns="http://www.w3.org/2000/svg">
<g clip-path="url(#clip0_623_6380)">
<path fill-rule="evenodd" clip-rule="evenodd" d="M4.39791 37.035C3.76417 37.035 3.1796 36.926 2.64967 36.708C2.11974 36.49 1.64443 36.163 1.23469 35.7269C0.824949 35.2964 0.513544 34.8004 0.305941 34.2499C0.0983383 33.7049 0 33.0999 0 32.4458C0 31.1269 0.409743 30.0368 1.22923 29.1756C1.63897 28.7451 2.10881 28.418 2.64421 28.2C3.17414 27.982 3.75871 27.873 4.40337 27.873C5.19008 27.873 5.88391 28.0256 6.49033 28.3363C6.87275 28.5325 7.21694 28.7887 7.52834 29.1048V24.5483H8.9761V36.8225H7.70316L7.62668 35.6779C7.56112 35.7542 7.4901 35.825 7.41361 35.8904C7.15684 36.1303 6.87275 36.3374 6.55042 36.5063C6.23355 36.6753 5.89483 36.8061 5.53426 36.8933C5.17369 36.9805 4.79672 37.0241 4.40883 37.0241L4.39791 37.035ZM2.29456 30.1839C2.01047 30.4728 1.80287 30.8053 1.66082 31.1814C1.51878 31.5574 1.44776 31.9826 1.44776 32.4513C1.44776 32.92 1.51878 33.3451 1.66082 33.7267C1.80287 34.1027 2.01593 34.4352 2.29456 34.7295C2.57865 35.0238 2.90098 35.2419 3.26155 35.3836C3.62759 35.5307 4.0428 35.6016 4.50171 35.6016C5.40314 35.6016 6.12975 35.3073 6.69793 34.7241C6.98202 34.4298 7.19508 34.0973 7.33166 33.7212C7.47371 33.3451 7.54473 32.92 7.54473 32.4458C7.54473 31.9717 7.47371 31.552 7.33166 31.1759C7.18962 30.7998 6.97655 30.4674 6.69793 30.1785C6.41384 29.8896 6.09151 29.6716 5.73094 29.5299C5.3649 29.3827 4.95516 29.3119 4.50171 29.3119C4.04826 29.3119 3.62759 29.3827 3.26155 29.5299C2.89552 29.6716 2.57318 29.8896 2.2891 30.1785L2.29456 30.1839ZM16.2968 37.035C14.9966 37.035 13.9367 36.6099 13.1227 35.7542C12.7184 35.3291 12.4125 34.8385 12.2103 34.2826C12.0082 33.7321 11.9099 33.1217 11.9099 32.4513C11.9099 31.7809 12.0137 31.1814 12.2158 30.6309C12.4179 30.0804 12.7239 29.5899 13.1336 29.1647C13.5434 28.7396 14.0132 28.418 14.5486 28.2C15.0785 27.9875 15.6686 27.8785 16.3132 27.8785C16.9579 27.8785 17.5862 27.9929 18.127 28.2218C18.6679 28.4507 19.1432 28.7996 19.5475 29.2628C19.9463 29.7207 20.2468 30.2494 20.438 30.8543C20.6292 31.4484 20.7166 32.1079 20.7002 32.8328V33.0999H13.4177C13.4669 33.416 13.5543 33.7049 13.669 33.9719C13.822 34.3099 14.0241 34.6042 14.2864 34.8603C14.5486 35.111 14.8436 35.3018 15.1769 35.4272C15.5101 35.5525 15.8871 35.6179 16.3023 35.6179C16.6082 35.6179 16.8923 35.5852 17.16 35.5144C17.4223 35.449 17.6681 35.3454 17.8921 35.2092C18.1161 35.0783 18.3182 34.9148 18.4931 34.7241C18.6679 34.5388 18.8154 34.3207 18.941 34.0809L19.0175 33.9283L20.5964 33.9556L20.4489 34.3208C20.285 34.7404 20.0665 35.111 19.7988 35.4435C19.5311 35.776 19.2087 36.0649 18.8427 36.3047C18.4712 36.5499 18.0779 36.7298 17.6517 36.8497C17.2311 36.9696 16.7776 37.0296 16.3023 37.0296L16.2968 37.035ZM13.4122 31.7482H19.2197C19.165 31.4321 19.0722 31.1487 18.952 30.887C18.799 30.5546 18.5859 30.2657 18.3237 30.0204C18.0615 29.7806 17.761 29.5953 17.4332 29.4754C17.0999 29.3555 16.723 29.2901 16.3132 29.2901C15.9035 29.2901 15.5211 29.35 15.1823 29.4754C14.8491 29.6008 14.5486 29.7861 14.2864 30.0313C14.0241 30.2766 13.8111 30.5709 13.6636 30.8979C13.5488 31.1541 13.4614 31.4321 13.4122 31.7373V31.7482ZM25.628 36.6644L21.8639 28.091H23.4373L24.9124 31.4266L26.3273 34.6696C27.2779 32.4622 28.2395 30.2875 29.2174 28.091H30.7744C29.496 31.0015 28.2176 33.9174 26.9392 36.8334H25.6936L25.6226 36.6698L25.628 36.6644ZM36.3797 37.035C35.0794 37.035 34.0196 36.6099 33.2056 35.7542C32.8013 35.3291 32.4953 34.8385 32.2932 34.2826C32.0911 33.7321 31.9927 33.1217 31.9927 32.4513C31.9927 31.7809 32.0911 31.1814 32.2932 30.6309C32.4953 30.0804 32.8013 29.5899 33.211 29.1647C34.0305 28.309 35.0904 27.8839 36.3906 27.8839C37.0626 27.8839 37.6636 27.9984 38.2044 28.2273C38.7453 28.4562 39.2206 28.805 39.6249 29.2683C40.0237 29.7261 40.3242 30.2548 40.5154 30.8598C40.7066 31.4539 40.794 32.1134 40.7776 32.8383V33.1053H33.4951C33.5443 33.4214 33.6317 33.7103 33.7464 33.9774C33.8994 34.3153 34.1015 34.6096 34.3638 34.8658C34.626 35.1165 34.921 35.3073 35.2543 35.4326C35.5875 35.558 35.9645 35.6234 36.3797 35.6234C36.6856 35.6234 36.9697 35.5907 37.2374 35.5198C37.4997 35.4544 37.7455 35.3509 37.9695 35.2146C38.1935 35.0783 38.3956 34.9203 38.5705 34.7295C38.7453 34.5442 38.8928 34.3262 39.0184 34.0864L39.0949 33.9338L40.6738 33.961L40.5263 34.3262C40.3624 34.7459 40.1439 35.1165 39.8762 35.449C39.6085 35.7814 39.2916 36.0703 38.9201 36.3101C38.5486 36.5554 38.1498 36.7352 37.7291 36.8552C37.3084 36.9751 36.855 37.035 36.3797 37.035ZM33.4951 31.7482H39.3025C39.2479 31.4321 39.155 31.1487 39.0348 30.887C38.8819 30.5546 38.6688 30.2657 38.4066 30.0204C38.1443 29.7806 37.8438 29.5953 37.516 29.4754C37.1828 29.3555 36.8058 29.2901 36.3961 29.2901C35.9863 29.2901 35.6039 29.35 35.2652 29.4754C34.9319 29.6008 34.6315 29.7861 34.3692 30.0313C34.1015 30.2821 33.8939 30.5709 33.7464 30.8979C33.6317 31.1541 33.5443 31.4321 33.4951 31.7373V31.7482ZM43.695 36.5554V24.5538H45.1427V36.8279H43.695V36.5554ZM52.6 37.035C51.2779 37.035 50.1962 36.6044 49.3549 35.7487C48.9342 35.3182 48.6173 34.8276 48.4043 34.2771C48.1967 33.7267 48.0929 33.1217 48.0929 32.4513C48.0929 31.7809 48.1967 31.1868 48.4043 30.6363C48.6173 30.0858 48.9287 29.5953 49.3549 29.1702C50.1962 28.3145 51.2779 27.8839 52.6 27.8839C53.9221 27.8839 54.9875 28.3145 55.8288 29.1702C56.2495 29.6008 56.5664 30.0913 56.7794 30.6363C56.987 31.1814 57.0908 31.7863 57.0908 32.4513C57.0908 33.1162 56.987 33.7267 56.7794 34.2771C56.5664 34.8331 56.255 35.3236 55.8288 35.7487C54.9875 36.6044 53.9112 37.035 52.6 37.035ZM49.5406 32.4513C49.5406 32.9255 49.6117 33.356 49.7537 33.7376C49.8957 34.1136 50.1088 34.4461 50.3874 34.735C50.6715 35.0238 50.9939 35.2419 51.3544 35.3836C51.7259 35.5307 52.1357 35.6016 52.5946 35.6016C53.5015 35.6016 54.239 35.3127 54.7963 34.735C55.0749 34.4461 55.288 34.1136 55.4245 33.7376C55.5666 33.356 55.6376 32.9255 55.6376 32.4513C55.6376 31.9771 55.5666 31.5574 55.4245 31.1814C55.2825 30.8053 55.0694 30.4728 54.7908 30.1839C54.5067 29.8951 54.1844 29.6771 53.8238 29.5354C53.4578 29.3882 53.048 29.3173 52.5946 29.3173C52.1411 29.3173 51.7205 29.3882 51.3544 29.5354C50.9884 29.6771 50.6661 29.8951 50.3874 30.1839C50.1034 30.4728 49.8957 30.8053 49.7537 31.1814C49.6117 31.5574 49.5406 31.9826 49.5406 32.4513ZM64.6137 37.035C64.2313 37.035 63.8598 36.9914 63.5156 36.9097C63.166 36.8279 62.8327 36.7025 62.5158 36.5336C62.199 36.3646 61.9149 36.1684 61.6636 35.9395C61.6035 35.885 61.5488 35.8305 61.4942 35.776V40H60.0464V28.091H61.3412L61.4068 29.2356C61.4723 29.1647 61.5379 29.0939 61.6089 29.0285C61.8657 28.7887 62.1498 28.5761 62.4721 28.4071C62.789 28.2382 63.1277 28.1074 63.4883 28.0202C63.8489 27.933 64.2258 27.8894 64.6137 27.8894C65.2529 27.8894 65.8429 27.9984 66.3729 28.2164C66.9083 28.4344 67.3781 28.756 67.7878 29.192C68.1976 29.6226 68.5035 30.1131 68.7111 30.6636C68.9133 31.2086 69.0171 31.8081 69.0171 32.4622C69.0171 33.1162 68.9133 33.7158 68.7111 34.2662C68.509 34.8167 68.1976 35.3073 67.7933 35.7433C67.3836 36.1793 66.9083 36.5063 66.3783 36.7243C65.8484 36.9424 65.2638 37.0514 64.6192 37.0514L64.6137 37.035ZM62.3082 30.1839C62.0241 30.4728 61.8165 30.8053 61.6745 31.1814C61.5324 31.5574 61.4614 31.9826 61.4614 32.4513C61.4614 32.92 61.5324 33.3451 61.6745 33.7267C61.8165 34.1027 62.0296 34.4352 62.3082 34.7295C62.8709 35.3127 63.6085 35.607 64.5154 35.607C65.4223 35.607 66.1598 35.3182 66.7171 34.7404C66.9957 34.4516 67.2087 34.1191 67.3453 33.743C67.4874 33.3615 67.5584 32.9309 67.5584 32.4567C67.5584 31.9826 67.4874 31.5629 67.3453 31.1868C67.2033 30.8107 66.9957 30.4837 66.7171 30.1894C66.4384 29.9005 66.1161 29.6825 65.7555 29.5408C65.3895 29.3936 64.9743 29.3228 64.5154 29.3228C64.0565 29.3228 63.6413 29.3936 63.2752 29.5408C62.9092 29.688 62.5868 29.9005 62.3082 30.1894V30.1839ZM71.9618 36.5554V28.0856H73.2565L73.3057 28.9031C73.5297 28.6579 73.7865 28.4562 74.0706 28.2981C74.5787 28.0202 75.1741 27.8785 75.8625 27.8785C76.2395 27.8785 76.5946 27.9275 76.9224 28.0202C77.2556 28.1128 77.5616 28.2545 77.8457 28.4398C78.1298 28.6306 78.3701 28.8541 78.5723 29.1211C78.6652 29.241 78.7471 29.3664 78.8236 29.4972C78.911 29.3609 79.0039 29.2301 79.1022 29.1102C79.3207 28.8486 79.5775 28.6197 79.8671 28.4344C80.1566 28.2491 80.4735 28.1074 80.8067 28.0147C81.14 27.9221 81.5006 27.873 81.8721 27.873C82.4129 27.873 82.9046 27.9602 83.3471 28.1401C83.7897 28.3199 84.1776 28.5924 84.5053 28.9522C84.8331 29.3119 85.079 29.7316 85.2374 30.2221C85.3959 30.7017 85.4778 31.2413 85.4778 31.8408V36.8225H84.0301V31.9826C84.0301 31.5574 83.9754 31.1759 83.8716 30.8434C83.7678 30.5164 83.6148 30.2384 83.4127 30.0041C83.2106 29.7697 82.9756 29.5953 82.7079 29.4809C82.4348 29.3664 82.1179 29.3064 81.7683 29.3064C81.4186 29.3064 81.0908 29.3664 80.8122 29.4863C80.5336 29.6062 80.2932 29.7861 80.0856 30.0259C79.8725 30.2712 79.7141 30.56 79.6048 30.887C79.4956 31.225 79.4409 31.6119 79.4409 32.0425V36.817H77.9932V31.9771C77.9932 31.552 77.9385 31.1705 77.8347 30.838C77.7309 30.5164 77.578 30.233 77.3758 29.9986C77.1737 29.7643 76.9388 29.5899 76.6711 29.4754C76.3979 29.3609 76.092 29.301 75.7423 29.301C75.3927 29.301 75.0649 29.3609 74.7863 29.4809C74.5076 29.6008 74.2672 29.7806 74.0596 30.0204C73.8466 30.2657 73.6881 30.5546 73.5789 30.8816C73.4696 31.2195 73.415 31.6065 73.415 32.0371V36.8116H71.9672V36.539L71.9618 36.5554ZM92.6237 37.035C91.3235 37.035 90.2636 36.6099 89.4496 35.7542C89.0453 35.3291 88.7394 34.8385 88.5372 34.2826C88.3351 33.7321 88.2367 33.1217 88.2367 32.4513C88.2367 31.7809 88.3405 31.1814 88.5372 30.6309C88.7394 30.0804 89.0453 29.5899 89.455 29.1647C89.8648 28.7396 90.3346 28.418 90.87 28.2C91.4 27.9875 91.99 27.8785 92.6347 27.8785C93.2793 27.8785 93.9076 27.9929 94.4484 28.2218C94.9893 28.4507 95.4646 28.7996 95.8689 29.2628C96.2677 29.7207 96.5682 30.2494 96.7594 30.8543C96.9506 31.4484 97.038 32.1079 97.0216 32.8328V33.0999H89.7391C89.7883 33.416 89.8757 33.7049 89.9904 33.9719C90.1434 34.3099 90.3456 34.6042 90.6078 34.8603C90.87 35.111 91.165 35.3018 91.4983 35.4272C91.8316 35.5525 92.2085 35.6179 92.6237 35.6179C92.9297 35.6179 93.2138 35.5852 93.4815 35.5144C93.7437 35.449 93.9895 35.3454 94.2135 35.2092C94.4375 35.0783 94.6397 34.9148 94.8145 34.7241C94.9893 34.5388 95.1368 34.3207 95.2625 34.0809L95.339 33.9283L96.9178 33.9556L96.7703 34.3208C96.6064 34.7404 96.3879 35.111 96.1202 35.4435C95.8525 35.776 95.5356 36.0594 95.1641 36.3047C94.7981 36.5499 94.3993 36.7298 93.9731 36.8497C93.5525 36.9696 93.099 37.0296 92.6237 37.0296V37.035ZM89.7391 31.7482H95.5466C95.4919 31.4321 95.399 31.1487 95.2789 30.887C95.1259 30.5546 94.9128 30.2657 94.6506 30.0204C94.3884 29.7806 94.0879 29.5953 93.7601 29.4754C93.4268 29.3555 93.0499 29.2901 92.6401 29.2901C92.2304 29.2901 91.8479 29.35 91.5092 29.4754C91.176 29.6008 90.8755 29.7861 90.6133 30.0313C90.351 30.2766 90.1379 30.5709 89.9904 30.8979C89.8757 31.1541 89.7883 31.4321 89.7391 31.7373V31.7482ZM99.939 36.5554V28.0856H101.234L101.283 29.1211C101.321 29.0775 101.365 29.0285 101.403 28.9849C101.633 28.7451 101.895 28.5434 102.184 28.3744C102.474 28.2109 102.78 28.0856 103.097 28.0038C103.419 27.9221 103.752 27.8785 104.102 27.8785C105.233 27.8785 106.129 28.26 106.79 29.0176C107.118 29.3936 107.364 29.8351 107.527 30.342C107.686 30.8434 107.768 31.3994 107.768 32.0153V36.8225H106.32V32.097C106.32 31.6555 106.265 31.2577 106.156 30.9143C106.052 30.5764 105.894 30.2875 105.681 30.0368C105.271 29.5517 104.703 29.3119 103.987 29.3119C103.599 29.3119 103.25 29.3773 102.938 29.5136C102.627 29.6498 102.354 29.8515 102.113 30.124C101.873 30.3965 101.687 30.7126 101.567 31.0724C101.441 31.4375 101.381 31.8463 101.381 32.3041V36.8225H99.9335V36.5499L99.939 36.5554ZM114.531 36.8279C113.592 36.8279 112.87 36.5554 112.368 36.0213C112.117 35.7487 111.925 35.4217 111.805 35.0293C111.685 34.6478 111.625 34.2117 111.625 33.7212V29.4754H109.866V28.091H111.166C111.401 28.091 111.548 28.0638 111.608 28.0093C111.63 27.9875 111.652 27.9493 111.674 27.8948C111.701 27.8131 111.723 27.7095 111.74 27.5841L111.832 26.0744H113.078V28.0856H115.864V29.47H113.078V33.6831C113.078 33.9992 113.111 34.2662 113.176 34.4897C113.237 34.7023 113.324 34.8712 113.439 35.002C113.548 35.1274 113.695 35.2255 113.876 35.2909C114.067 35.3618 114.296 35.3945 114.57 35.3945H115.979V36.8279H114.537H114.531Z" fill="none"/>
<path fill-rule="evenodd" clip-rule="evenodd" d="M17.2693 20.4497L9.17824 9.70159L17.4496 0.141708H11.5493L4.97154 8.1864V0.141708H0.0983353V20.4497H4.97154V12.4104L11.5493 20.4497H17.2693Z" fill="none"/>
<path fill-rule="evenodd" clip-rule="evenodd" d="M28.2723 5.92451L30.7362 12.2196L25.9394 12.2632L28.2723 5.92451ZM33.4186 20.4496H38.86L30.6324 0.430573H25.8794L17.6517 20.4496H23.0931L24.5955 16.4055L31.9217 16.4927L33.4241 20.4496H33.4186Z" fill="none"/>
<path fill-rule="evenodd" clip-rule="evenodd" d="M46.0715 4.34937H49.0981C49.4805 4.34937 49.8575 4.38752 50.2181 4.46382C50.5786 4.54013 50.9338 4.66004 51.2725 4.81264C51.6057 4.96525 51.9226 5.15057 52.2176 5.36313C52.5126 5.57569 52.7858 5.81551 53.0316 6.08257C53.283 6.35509 53.5015 6.64396 53.6982 6.96553C53.8948 7.28165 54.0642 7.61957 54.2062 7.98474C54.3537 8.34991 54.4575 8.72598 54.5286 9.11296C54.5996 9.49993 54.6378 9.89781 54.6378 10.3011C54.6378 10.7045 54.5996 11.1023 54.5286 11.4893C54.4575 11.8708 54.3483 12.2469 54.2062 12.6175C54.0642 12.9772 53.8948 13.3152 53.6982 13.6367C53.5015 13.9583 53.2775 14.2526 53.0316 14.5142C52.7858 14.7813 52.5126 15.0211 52.2122 15.2337C51.9226 15.4462 51.6057 15.6261 51.2725 15.7787C50.9338 15.9368 50.5841 16.0512 50.2181 16.1275C49.8575 16.2038 49.4805 16.242 49.0981 16.242H45.618V4.34937H46.0715ZM41.3349 20.4497H49.71C50.371 20.4497 51.0102 20.3842 51.6167 20.2534C52.2231 20.1226 52.8186 19.921 53.3977 19.6539C53.9768 19.3868 54.5176 19.0707 55.0148 18.711C55.5174 18.3513 55.9818 17.937 56.4134 17.4792C56.8395 17.0214 57.2219 16.5254 57.5607 15.9858C57.8994 15.4462 58.1889 14.8685 58.4403 14.2472C58.6861 13.6258 58.8718 12.9881 58.9975 12.3341C59.1177 11.6801 59.1833 11.0042 59.1833 10.2957C59.1833 9.58714 59.1232 8.91129 58.9975 8.25726C58.8773 7.60322 58.6916 6.96553 58.4457 6.34419C58.1999 5.72285 57.9049 5.14511 57.5661 4.60553C57.2274 4.06595 56.845 3.56452 56.4188 3.11214C55.9873 2.65431 55.5229 2.24554 55.0257 1.88036C54.5286 1.52064 53.9877 1.20452 53.4086 0.937457C52.835 0.670391 52.2395 0.468728 51.6276 0.33792C51.0212 0.207112 50.382 0.141708 49.7209 0.141708H41.3458V20.4497H41.3349Z" fill="none"/>
<path d="M67.7769 0.141708H63.013V20.4497H67.7769V0.141708Z" fill="none"/>
<path fill-rule="evenodd" clip-rule="evenodd" d="M89.9631 14.3344C90.0396 13.9093 90.0779 13.4623 90.0779 13.0045V0H85.1227V12.6502C85.1227 12.8791 85.0954 13.1081 85.0462 13.337C84.997 13.5659 84.9206 13.7784 84.8222 13.9747C84.7239 14.1709 84.6146 14.3562 84.4835 14.5251C84.3524 14.6996 84.2049 14.8576 84.0464 14.9993C83.888 15.141 83.7132 15.2718 83.5274 15.3808C83.3472 15.4898 83.1505 15.588 82.9429 15.6643C82.7353 15.746 82.5222 15.806 82.3037 15.8441C82.0797 15.8823 81.8557 15.9041 81.6317 15.9041C81.4077 15.9041 81.1946 15.8823 80.9761 15.8441C80.763 15.806 80.55 15.746 80.3424 15.6643C80.1293 15.5825 79.9381 15.4898 79.7578 15.3808C79.5721 15.2664 79.4027 15.141 79.2443 14.9993C79.0858 14.8576 78.9438 14.6996 78.8072 14.5251C78.6761 14.3507 78.5668 14.1709 78.4685 13.9747C78.3701 13.773 78.2991 13.5604 78.2445 13.337C78.1953 13.1135 78.168 12.8846 78.168 12.6502V0H73.2128V13.0045C73.2128 13.4623 73.2511 13.9038 73.3276 14.3344C73.4041 14.765 73.5133 15.1792 73.6608 15.5771C73.8138 15.9804 73.9941 16.3674 74.2017 16.7325C74.4093 17.0922 74.6497 17.4356 74.9283 17.7681C75.2015 18.0951 75.4965 18.4003 75.8188 18.6837C76.1466 18.9726 76.4963 19.2342 76.8623 19.4686C77.2393 19.7084 77.6271 19.921 78.0314 20.1063C78.4302 20.2916 78.8564 20.4442 79.2934 20.5805H79.2989C79.4846 20.6404 79.6759 20.6949 79.878 20.744C80.0638 20.7876 80.255 20.8312 80.4571 20.8639C80.6483 20.8966 80.8395 20.9238 81.0362 20.9402C81.2274 20.9565 81.4241 20.9674 81.6208 20.9674C81.8174 20.9674 82.0141 20.9565 82.2108 20.9402C82.4129 20.9238 82.6096 20.8966 82.8008 20.8639C83.0084 20.8257 83.2051 20.7876 83.3909 20.744C83.5711 20.7004 83.7678 20.6459 83.97 20.5805H83.9754C84.418 20.4442 84.8386 20.2916 85.2374 20.1063C85.6417 19.921 86.0351 19.7084 86.4066 19.4686C86.7726 19.2342 87.1223 18.9726 87.45 18.6837C87.7724 18.4003 88.0674 18.0951 88.3405 17.7681C88.6137 17.4356 88.8596 17.0922 89.0672 16.7325C89.2802 16.3674 89.4605 15.9858 89.608 15.5771C89.7555 15.1792 89.8703 14.765 89.9413 14.3344H89.9631Z" fill="none"/>
<path fill-rule="evenodd" clip-rule="evenodd" d="M111.565 9.99591V20.4497H116.334V0.141708H111.401C111.401 0.141708 111.374 0.158059 111.363 0.17441L105.67 9.26557L100.005 0.179861C100.005 0.179861 99.9772 0.152609 99.9608 0.147159C99.9608 0.147159 99.9445 0.147159 99.9335 0.147159H95.0275V20.4497H99.7969V8.24636C101.654 11.195 103.769 14.2799 105.473 17.2612C105.517 17.2721 105.555 17.283 105.588 17.283C105.621 17.283 105.659 17.2885 105.692 17.2885C105.741 17.2885 105.801 17.2776 105.883 17.2558C107.62 14.2526 109.691 11.2059 111.559 8.2409V9.99046L111.565 9.99591Z" fill="none"/>
<path fill-rule="evenodd" clip-rule="evenodd" d="M121.612 0.376074L135.958 18.651L121.612 37.2367H129.386L143.803 18.5039L129.533 0.223465L121.612 0.376074Z" fill="none" stroke="none" stroke-width="0.57" stroke-miterlimit="22.93"/>
</g>
<defs>
<clipPath id="clip0_623_6380">
<rect width="144" height="40" fill="white"/>
</clipPath>
</defs>
</svg>
