<svg width="42" height="42" viewBox="0 0 42 42" fill="none" xmlns="http://www.w3.org/2000/svg">
<circle cx="21" cy="21" r="20.5" stroke="#EBEBF2"/>
<path fill-rule="evenodd" clip-rule="evenodd" d="M20.9997 29C20.9997 29 27.6663 24.6364 27.6663 19.5455C27.6663 17.8095 26.964 16.1446 25.7137 14.9171C24.4635 13.6896 22.7678 13 20.9997 13C19.2316 13 17.5359 13.6896 16.2856 14.9171C15.0354 16.1446 14.333 17.8095 14.333 19.5455C14.333 24.6364 20.9997 29 20.9997 29ZM23.6663 19.6667C23.6663 21.1394 22.4724 22.3333 20.9997 22.3333C19.5269 22.3333 18.333 21.1394 18.333 19.6667C18.333 18.1939 19.5269 17 20.9997 17C22.4724 17 23.6663 18.1939 23.6663 19.6667Z" fill="#2A2C65"/>
</svg>
