<svg width="42" height="42" viewBox="0 0 42 42" fill="none" xmlns="http://www.w3.org/2000/svg">
<circle cx="21" cy="21" r="20.5" stroke="#EBEBF2"/>
<path d="M27.6669 24.28V26.28C27.6677 26.4657 27.6297 26.6494 27.5553 26.8195C27.4809 26.9897 27.3718 27.1424 27.235 27.2679C27.0982 27.3934 26.9367 27.489 26.7608 27.5485C26.5849 27.6079 26.3985 27.63 26.2136 27.6133C24.1622 27.3904 22.1916 26.6894 20.4603 25.5666C18.8495 24.5431 17.4838 23.1774 16.4603 21.5666C15.3336 19.8275 14.6324 17.8473 14.4136 15.7866C14.397 15.6023 14.4189 15.4165 14.4779 15.2411C14.537 15.0656 14.632 14.9044 14.7568 14.7677C14.8816 14.631 15.0335 14.5218 15.2028 14.447C15.3721 14.3722 15.5552 14.3335 15.7403 14.3333H17.7403C18.0638 14.3301 18.3775 14.4447 18.6228 14.6557C18.8681 14.8666 19.0283 15.1596 19.0736 15.48C19.158 16.12 19.3146 16.7485 19.5403 17.3533C19.63 17.5919 19.6494 17.8513 19.5962 18.1006C19.543 18.3499 19.4195 18.5787 19.2403 18.76L18.3936 19.6066C19.3427 21.2757 20.7246 22.6576 22.3936 23.6066L23.2403 22.76C23.4215 22.5807 23.6504 22.4572 23.8997 22.404C24.149 22.3509 24.4083 22.3703 24.6469 22.46C25.2518 22.6857 25.8802 22.8422 26.5203 22.9267C26.8441 22.9723 27.1399 23.1355 27.3513 23.385C27.5627 23.6345 27.6751 23.953 27.6669 24.28Z" fill="#2A2C65"/>
</svg>
