<svg width="16" height="23" viewBox="0 0 16 23" fill="none" xmlns="http://www.w3.org/2000/svg">
<path d="M9.50024 22.9999C10.8373 22.9999 12.9688 20.6163 14.1244 17.9738C14.3525 17.4522 14.0434 16.8694 13.496 16.713L11.5556 16.1585C11.212 16.0604 10.9468 15.7863 10.8602 15.4396L10.1896 12.7573C10.0783 12.3122 9.67833 11.9999 9.21947 11.9999H7.58509C7.22382 11.9999 6.89063 12.1947 6.71351 12.5096L2.7605 19.5372C2.59775 19.8265 2.5873 20.1796 2.78727 20.4446C3.52969 21.4283 5.29392 22.9999 7.00024 22.9999H9.50024Z" fill="none"/>
<path fill-rule="evenodd" clip-rule="evenodd" d="M5.39283 7C5.39283 7 6.49463 8.69747 5.54005 10.4342C4.58478 12.1709 3.74735 13.5395 3.93889 14.9997C3.93889 14.9997 3.45402 12.6313 1.00037 12.0125C1.00037 12.0125 1.91122 13.5518 1.41196 15.7233C0.912729 17.8943 3.00037 23 7.00037 23C7.00037 23 2.57285 21.0394 5.52628 17.8548C5.52628 17.8548 5.59955 19.4211 7.12047 19.8877C7.12047 19.8877 4.72575 16.2363 8.25182 12.8415C8.25182 12.8415 7.44376 15.197 10.1473 17.2104C12.8509 19.2238 11.0576 22.553 9.50026 23C13.0005 23 17.2963 17.9163 13.3946 12.5129C13.3946 12.5129 13.218 14.105 11.9251 14.7237C11.9251 14.7237 12.1154 7.8947 5.39283 7Z" fill="none"/>
</svg>
